<?xml version="1.0" encoding="UTF-8"?>
<svg xmlns="http://www.w3.org/2000/svg" version="1.1" width="100" height="100" viewBox="0 0 100 100"><rect x="0" y="0" width="100" height="100" fill="#ffffff"/><g transform="scale(4)"><g transform="translate(0,0)"><path fill-rule="evenodd" d="M9 0L9 1L10 1L10 2L8 2L8 3L9 3L9 4L10 4L10 5L9 5L9 6L8 6L8 8L4 8L4 9L3 9L3 8L0 8L0 9L2 9L2 10L1 10L1 11L4 11L4 12L1 12L1 14L0 14L0 15L1 15L1 16L0 16L0 17L1 17L1 16L2 16L2 15L3 15L3 17L5 17L5 16L4 16L4 15L7 15L7 14L5 14L5 13L7 13L7 12L8 12L8 16L6 16L6 17L8 17L8 21L9 21L9 22L8 22L8 25L11 25L11 24L12 24L12 25L14 25L14 24L15 24L15 25L20 25L20 24L21 24L21 19L22 19L22 16L20 16L20 15L16 15L16 16L15 16L15 18L14 18L14 17L13 17L13 16L14 16L14 15L15 15L15 13L16 13L16 14L17 14L17 13L18 13L18 14L19 14L19 12L16 12L16 11L15 11L15 9L13 9L13 8L14 8L14 7L15 7L15 8L16 8L16 9L17 9L17 11L20 11L20 12L21 12L21 11L23 11L23 12L24 12L24 14L23 14L23 13L22 13L22 14L23 14L23 17L25 17L25 16L24 16L24 15L25 15L25 9L23 9L23 8L22 8L22 9L21 9L21 10L19 10L19 8L16 8L16 7L17 7L17 6L16 6L16 3L15 3L15 2L17 2L17 1L16 1L16 0L12 0L12 1L10 1L10 0ZM13 1L13 3L12 3L12 2L11 2L11 3L12 3L12 4L11 4L11 5L10 5L10 6L9 6L9 7L10 7L10 6L11 6L11 8L12 8L12 6L13 6L13 7L14 7L14 6L15 6L15 7L16 7L16 6L15 6L15 5L14 5L14 4L15 4L15 3L14 3L14 1ZM13 5L13 6L14 6L14 5ZM9 8L9 9L8 9L8 10L7 10L7 9L4 9L4 10L5 10L5 12L4 12L4 13L5 13L5 12L7 12L7 11L9 11L9 15L10 15L10 14L11 14L11 15L12 15L12 16L9 16L9 17L10 17L10 18L11 18L11 19L9 19L9 21L11 21L11 22L10 22L10 23L9 23L9 24L10 24L10 23L12 23L12 20L11 20L11 19L13 19L13 17L12 17L12 16L13 16L13 15L12 15L12 14L13 14L13 13L12 13L12 12L13 12L13 11L14 11L14 10L13 10L13 9L12 9L12 10L10 10L10 8ZM22 9L22 10L23 10L23 9ZM6 10L6 11L7 11L7 10ZM9 10L9 11L10 11L10 10ZM11 11L11 12L12 12L12 11ZM14 12L14 13L15 13L15 12ZM1 14L1 15L2 15L2 14ZM17 17L17 20L20 20L20 17ZM18 18L18 19L19 19L19 18ZM23 18L23 19L24 19L24 20L25 20L25 18ZM15 19L15 20L14 20L14 21L13 21L13 22L14 22L14 23L15 23L15 22L16 22L16 23L17 23L17 24L18 24L18 23L19 23L19 24L20 24L20 23L19 23L19 22L20 22L20 21L18 21L18 22L17 22L17 21L16 21L16 19ZM24 22L24 23L23 23L23 25L25 25L25 24L24 24L24 23L25 23L25 22ZM0 0L0 7L7 7L7 0ZM1 1L1 6L6 6L6 1ZM2 2L2 5L5 5L5 2ZM18 0L18 7L25 7L25 0ZM19 1L19 6L24 6L24 1ZM20 2L20 5L23 5L23 2ZM0 18L0 25L7 25L7 18ZM1 19L1 24L6 24L6 19ZM2 20L2 23L5 23L5 20Z" fill="#000000"/></g></g></svg>
